<?xml version="1.0" encoding="UTF-8" standalone="no"?>
<!-- Created with Inkscape (http://www.inkscape.org/) -->

<svg
   xmlns:dc="http://purl.org/dc/elements/1.1/"
   xmlns:cc="http://creativecommons.org/ns#"
   xmlns:rdf="http://www.w3.org/1999/02/22-rdf-syntax-ns#"
   xmlns:svg="http://www.w3.org/2000/svg"
   xmlns="http://www.w3.org/2000/svg"
   xmlns:sodipodi="http://sodipodi.sourceforge.net/DTD/sodipodi-0.dtd"
   xmlns:inkscape="http://www.inkscape.org/namespaces/inkscape"
   width="207.4505mm"
   height="42.842369mm"
   viewBox="0 0 207.4505 42.842369"
   version="1.1"
   id="svg8"
   inkscape:version="0.92.4 (5da689c313, 2019-01-14)"
   sodipodi:docname="logo.svg">
  <defs
     id="defs2" />
  <sodipodi:namedview
     id="base"
     pagecolor="#ffffff"
     bordercolor="#666666"
     borderopacity="1.0"
     inkscape:pageopacity="0.0"
     inkscape:pageshadow="2"
     inkscape:zoom="0.7"
     inkscape:cx="206.79634"
     inkscape:cy="81.65801"
     inkscape:document-units="mm"
     inkscape:current-layer="layer1"
     showgrid="false"
     inkscape:window-width="1366"
     inkscape:window-height="715"
     inkscape:window-x="-8"
     inkscape:window-y="-8"
     inkscape:window-maximized="1" />
  <metadata
     id="metadata5">
    <rdf:RDF>
      <cc:Work
         rdf:about="">
        <dc:format>image/svg+xml</dc:format>
        <dc:type
           rdf:resource="http://purl.org/dc/dcmitype/StillImage" />
        <dc:title></dc:title>
      </cc:Work>
    </rdf:RDF>
  </metadata>
  <g
     inkscape:label="Camada 1"
     inkscape:groupmode="layer"
     id="layer1"
     transform="translate(-1.4889095,-128.87201)">
    <path
       inkscape:connector-curvature="0"
       id="path35"
       style="font-style:normal;font-variant:normal;font-weight:normal;font-stretch:normal;font-size:40px;line-height:1.25;font-family:FoglihtenNo04;-inkscape-font-specification:FoglihtenNo04;letter-spacing:0px;word-spacing:0px;fill:#000000;fill-opacity:1;stroke:none;stroke-width:1.00853145"
       d="m 12.986167,133.39019 -8.6330283,26.5042 c -0.4437539,1.41195 -1.2102377,2.13809 -2.2187691,2.13809 H 1.4889095 v 0.72614 h 8.9557585 v -0.40341 H 7.1770266 c -1.250579,0 -1.9363803,-0.64546 -1.9363803,-1.61365 0,-0.24205 0.080682,-0.52444 0.2017063,-0.84717 l 1.6539915,-5.00231 11.6989639,-0.24205 1.855698,5.80914 c 0.201706,0.76648 0.685801,1.61365 1.250579,1.81536 v 0.0807 h -2.25911 v 0.40341 h 6.575624 v -0.72614 h -0.32273 c -1.452285,0 -1.734674,-0.16137 -2.380134,-2.13809 l -1.775015,-5.36539 3.711396,-0.16136 c 6.051188,0 11.013162,-4.3972 11.013162,-9.31883 0,-4.76027 -4.276173,-8.63303 -9.520536,-8.63303 -2.864229,0 -6.010847,1.89604 -6.010847,5.24436 0,2.29946 1.734674,4.23584 4.19549,4.23584 v -0.40342 c -2.218769,0 -3.792078,-1.73467 -3.792078,-3.83242 0,-3.06593 2.86423,-4.84095 5.607435,-4.84095 5.002316,0 9.117124,3.7114 9.117124,8.22962 0,4.5989 -4.760268,8.75405 -10.60975,8.75405 H 21.538514 L 15.97142,136.57715 c -0.201706,-0.60512 -0.403412,-1.77502 -0.403412,-2.58184 0,-0.16137 0.04034,-0.28239 0.04034,-0.40342 v -0.2017 z m 5.526753,20.41267 H 7.4190741 L 12.542414,138.1908 c 0.242047,-0.84717 0.403412,-1.37161 0.403412,-1.61365 h 0.282389 c 0,0.44375 0.04034,1.00853 0.282389,1.61365 z" />
    <path
       inkscape:connector-curvature="0"
       id="path37"
       style="font-style:normal;font-variant:normal;font-weight:normal;font-stretch:normal;font-size:40px;line-height:1.25;font-family:FoglihtenNo04;-inkscape-font-specification:FoglihtenNo04;letter-spacing:0px;word-spacing:0px;fill:#000000;fill-opacity:1;stroke:none;stroke-width:1.00853145"
       d="m 28.229489,133.75326 v 0.72614 h 1.61365 c 1.653992,0 2.017063,0.12102 2.017063,1.12956 0,0.16136 -0.04034,0.40341 -0.04034,0.64546 l -1.694333,23.2769 c -0.201706,2.25911 -0.443754,2.50116 -2.501158,2.50116 h -0.64546 v 0.72614 h 8.9961 v -0.40341 H 33.7159 c -2.178428,0 -2.541499,-0.40341 -2.541499,-1.53297 0,-0.20171 0,-0.44375 0.04034,-0.76648 l 1.411944,-19.76722 c 0.04034,-0.72614 0.04034,-1.25058 0.04034,-1.61365 h 0.282389 c 0,0.12103 0.242048,0.80683 0.605119,1.61365 l 9.802925,22.83315 h 0.484095 l 10.004632,-23.2769 c 0.363071,-0.84717 0.64546,-1.53297 0.64546,-1.65399 h 0.242047 c 0,0.44375 0,1.21023 0.04034,1.65399 l 1.169896,17.66947 c 0.605119,9.07678 5.002316,14.20012 12.505789,14.20012 5.889823,0 10.569409,-4.55856 10.569409,-10.3677 0,-5.40573 -4.235832,-9.80293 -9.762583,-9.80293 -1.452286,0 -2.823888,0.32273 -3.993785,0.88751 l 0.161365,0.36307 c 1.129555,-0.52444 2.460817,-0.84717 3.83242,-0.84717 5.284703,0 9.35917,4.1955 9.35917,9.39952 0,5.56709 -4.477879,9.96429 -10.165996,9.96429 -5.768799,0 -9.076782,-4.76027 -9.64156,-13.27228 l -1.371602,-21.05813 c -0.04034,-0.32273 -0.04034,-0.64546 -0.04034,-0.88751 0,-1.41194 0.443754,-1.93638 2.178428,-1.93638 h 6.696649 v -0.40341 H 55.298472 L 45.253499,157.0705 c -0.282389,0.60512 -0.564777,1.49263 -0.564777,1.73468 h -0.201707 c 0,-0.24205 -0.242047,-0.92785 -0.605118,-1.73468 L 33.836924,133.75326 Z" />
    <path
       inkscape:connector-curvature="0"
       id="path39"
       style="font-style:normal;font-variant:normal;font-weight:normal;font-stretch:normal;font-size:40px;line-height:1.25;font-family:FoglihtenNo04;-inkscape-font-specification:FoglihtenNo04;letter-spacing:0px;word-spacing:0px;fill:#000000;fill-opacity:1;stroke:none;stroke-width:1.00853145"
       d="m 62.719372,162.75862 h 3.872761 c 0,4.27617 2.823888,7.86655 6.9387,7.86655 h 0.08068 c 3.429007,-0.0403 5.970506,-2.86423 5.970506,-6.21256 0,-3.2273 -2.218769,-5.88982 -5.325046,-5.88982 -2.501162,0 -4.356859,1.89604 -4.356859,4.23583 0,2.05741 1.452285,3.46935 2.944911,3.9131 l 0.08068,-0.40341 c -1.371603,-0.40341 -2.622182,-1.65399 -2.622182,-3.50969 0,-2.09774 1.653992,-3.83242 3.953447,-3.83242 2.86423,0 4.921634,2.46082 4.921634,5.48641 0,3.14662 -2.380135,5.7688 -5.567094,5.80914 h -0.08068 c -3.832424,0 -6.535288,-3.38866 -6.535288,-7.46313 v -24.4468 c 0,-0.6858 0,-1.29092 -0.04034,-1.73467 h 0.242048 c 0,0.16136 0.363071,0.80682 0.806825,1.57331 l 15.329681,24.97123 c 0.524436,0.96819 0.806825,1.41195 0.806825,2.5415 v 5.083 h 0.403413 v -33.2412 c 0,-1.93638 0.64546,-3.34832 2.58184,-3.34832 h 4.679586 v -0.40341 h -17.9922 v 0.40341 h 7.100061 c 1.93638,0 2.58184,1.41194 2.58184,3.34832 v 18.71835 c 0,0.6858 0,1.25058 0.04034,1.69433 h -0.242047 c 0,-0.16136 -0.282389,-0.72614 -0.726143,-1.49263 L 68.649537,133.75326 h -5.930165 v 0.72614 h 1.048873 c 1.93638,0 2.178428,0.20171 2.178428,2.13809 v 23.2769 c 0,1.93638 -0.242048,2.13809 -2.178428,2.13809 h -1.048873 z" />
    <path
       inkscape:connector-curvature="0"
       id="path41"
       style="font-style:normal;font-variant:normal;font-weight:normal;font-stretch:normal;font-size:40px;line-height:1.25;font-family:FoglihtenNo04;-inkscape-font-specification:FoglihtenNo04;letter-spacing:0px;word-spacing:0px;fill:#000000;fill-opacity:1;stroke:none;stroke-width:1.00853145"
       d="m 89.193325,162.75862 h 19.968925 c 0.64546,0 0.80682,-0.0807 1.08921,-0.36307 h 0.0403 l -0.40341,6.01085 0.40341,0.0403 1.08922,-16.70128 h -0.64546 l -0.36308,4.84095 c -0.32273,3.87276 -2.13808,5.083 -6.01084,5.083 h -9.641563 v -0.0403 c 0.484096,-0.4841 0.887508,-1.21024 0.887508,-2.09775 V 148.0744 h 2.743205 c 2.25911,0 4.35686,0.44376 4.35686,4.31652 v 7.26142 h 0.40341 V 148.0744 h 17.22572 v -0.40341 h -17.22572 v -11.01316 h -0.40341 v 6.05119 c 0,3.87276 -2.09775,4.27617 -4.35686,4.27617 h -2.743205 v -10.00463 c 0,-0.88751 -0.403412,-1.61365 -0.887508,-2.09775 v -0.0403 h 7.301763 c 3.87277,0 5.93017,1.12956 6.21256,5.48641 l 0.28239,4.43754 h 0.72614 l -1.04887,-15.89445 -0.40342,0.0403 0.36308,5.20402 h -0.0404 c -0.28238,-0.28239 -0.44375,-0.36307 -1.08921,-0.36307 H 89.193325 v 0.72614 h 1.411944 c 1.936381,0 2.138087,0.20171 2.138087,2.13809 v 23.2769 c 0,1.93638 -0.201706,2.13809 -2.138087,2.13809 h -1.411944 z" />
    <path
       inkscape:connector-curvature="0"
       id="path43"
       style="font-style:normal;font-variant:normal;font-weight:normal;font-stretch:normal;font-size:40px;line-height:1.25;font-family:FoglihtenNo04;-inkscape-font-specification:FoglihtenNo04;letter-spacing:0px;word-spacing:0px;fill:#000000;fill-opacity:1;stroke:none;stroke-width:1.00853145"
       d="m 112.83078,162.75862 h 9.64156 v -0.72614 h -1.04887 c -1.93638,0 -2.17843,-0.20171 -2.17843,-2.13809 V 148.0744 h 12.9092 v 11.81999 c 0,1.93638 -0.2017,2.13809 -2.13808,2.13809 h -1.08922 v 0.72614 h 9.6819 v -0.72614 h -1.45228 c -1.93638,0 -2.13809,-0.20171 -2.13809,-2.13809 v -23.2769 c 0,-1.93638 0.20171,-2.13809 2.13809,-2.13809 h 1.45228 v -0.72614 h -8.59268 c -2.5415,0 -4.92164,1.49262 -4.92164,3.95344 0,1.61365 1.12956,2.82389 2.62218,2.82389 1.45229,0 2.42048,-1.08921 2.42048,-2.38013 0,-0.44376 -0.0807,-0.76649 -0.20171,-1.04888 l -0.36307,0.20171 c 0.0807,0.2017 0.16137,0.48409 0.16137,0.84717 0,1.04887 -0.76649,1.97672 -2.01707,1.97672 -1.25058,0 -2.21877,-1.00853 -2.21877,-2.42048 0,-2.13809 2.09775,-3.55003 4.51823,-3.55003 1.16989,0 2.13808,0.96819 2.13808,2.13809 v 10.69043 h -12.9092 v -10.3677 c 0,-1.93638 0.24205,-2.13809 2.17843,-2.13809 h 1.04887 v -0.72614 h -9.64156 v 0.72614 h 1.41194 c 1.93638,0 2.13809,0.20171 2.13809,2.13809 v 23.2769 c 0,1.93638 -0.20171,2.13809 -2.13809,2.13809 h -1.41194 z" />
    <path
       inkscape:connector-curvature="0"
       id="path45"
       style="font-style:normal;font-variant:normal;font-weight:normal;font-stretch:normal;font-size:40px;line-height:1.25;font-family:FoglihtenNo04;-inkscape-font-specification:FoglihtenNo04;letter-spacing:0px;word-spacing:0px;fill:#000000;fill-opacity:1;stroke:none;stroke-width:1.00853145"
       d="m 142.19228,160.90292 c 1.5733,1.08922 5.40572,2.17843 8.18927,2.17843 6.73699,0 10.40804,-2.5415 10.40804,-7.26142 0,-4.51823 -4.39719,-7.34211 -8.59268,-9.84327 -3.75174,-2.21877 -7.34211,-4.23583 -7.34211,-7.05972 0,-2.90457 2.0574,-4.3972 5.88982,-4.3972 3.99379,0 6.41426,2.78355 6.57563,5.97051 l 0.2017,4.11481 0.92785,-0.0404 -0.6858,-15.16831 h -0.40341 l 0.24205,5.36539 c 0,0.60512 0.0807,1.00853 0.16136,1.29092 l -0.28239,0.0807 c -0.0403,-0.12102 -0.36307,-0.72614 -0.64546,-0.92785 -1.25058,-0.92785 -3.67105,-1.77501 -6.09153,-1.77501 -5.48641,0 -8.59269,2.21877 -8.59269,6.33358 0,3.75173 3.34833,6.29323 6.9387,8.55234 1.29092,0.92785 2.33979,2.25911 2.33979,4.11481 0,1.97672 -1.41194,3.42901 -3.2273,3.42901 -1.49262,0 -2.58184,-0.96819 -2.58184,-2.21877 0,-1.08922 0.80683,-1.77502 1.65399,-1.77502 0.4841,0 0.88751,0.20171 1.12956,0.44376 l 0.28239,-0.28239 c -0.32273,-0.32273 -0.80683,-0.56478 -1.41195,-0.56478 -1.08921,0 -2.0574,0.88751 -2.0574,2.17843 0,1.53297 1.33126,2.62218 2.98525,2.62218 2.05741,0 3.63072,-1.65399 3.63072,-3.83242 0,-1.25058 -0.44376,-2.29945 -1.08922,-3.10628 3.63072,2.17843 7.10006,4.23583 7.10006,7.10006 0,3.63072 -2.70286,5.5671 -7.46313,5.5671 -4.11481,0 -9.03644,-3.38867 -9.27849,-7.50348 l -0.2017,-3.26764 -0.56478,0.0403 0.96819,19.88824 h 0.36307 l -0.44375,-9.80292 c -0.0403,-0.36307 -0.12103,-1.37161 -0.16137,-1.73468 l 0.12102,-0.0403 c 0.0807,0.32273 0.72615,1.12956 1.00854,1.33126 z" />
    <path
       inkscape:connector-curvature="0"
       id="path47"
       style="font-style:normal;font-variant:normal;font-weight:normal;font-stretch:normal;font-size:40px;line-height:1.25;font-family:FoglihtenNo04;-inkscape-font-specification:FoglihtenNo04;letter-spacing:0px;word-spacing:0px;fill:#000000;fill-opacity:1;stroke:none;stroke-width:1.00853145"
       d="m 172.26101,133.75326 h -9.31883 v 0.72614 h 1.41195 c 1.93638,0 2.13808,0.20171 2.13808,2.13809 v 23.2769 c 0,1.93638 -0.2017,2.13809 -2.13808,2.13809 h -1.41195 v 0.72614 h 10.00464 v -0.72614 h -1.41195 c -1.93638,0 -2.17843,-0.20171 -2.17843,-2.13809 v -23.59963 c 0,-1.93638 0.24205,-2.13809 2.17843,-2.13809 h 0.72614 c 2.13809,0 3.75174,1.41194 3.75174,3.38867 0,1.73467 -1.29092,2.90457 -2.90457,2.90457 -1.3716,0 -2.21877,-0.84717 -2.58184,-1.73468 l -0.40341,0.16137 c 0.40341,1.00853 1.41194,1.97672 2.98525,1.97672 1.81536,0 3.30798,-1.33126 3.30798,-3.30798 0,-2.21877 -1.85569,-3.79208 -4.15515,-3.79208 z" />
    <path
       inkscape:connector-curvature="0"
       id="path49"
       style="font-style:normal;font-variant:normal;font-weight:normal;font-stretch:normal;font-size:40px;line-height:1.25;font-family:FoglihtenNo04;-inkscape-font-specification:FoglihtenNo04;letter-spacing:0px;word-spacing:0px;fill:#000000;fill-opacity:1;stroke:none;stroke-width:1.00853145"
       d="m 185.46079,133.39019 -8.63302,26.5042 c -0.44376,1.41195 -1.21024,2.13809 -2.21877,2.13809 h -0.64546 v 0.72614 h 8.95576 v -0.40341 h -3.26765 c -1.25058,0 -1.93638,-0.64546 -1.93638,-1.61365 0,-0.24205 0.0807,-0.52444 0.20171,-0.84717 l 1.65399,-5.00231 11.69896,-0.24205 1.8557,5.80914 c 0.20171,0.76648 0.6858,1.61365 1.25058,1.81536 v 0.0807 h -2.25911 v 0.40341 h 6.57563 V 162.0325 H 198.37 c -1.45229,0 -1.73468,-0.16137 -2.38014,-2.13809 l -1.77501,-5.36539 3.71139,-0.16136 c 6.05119,0 11.01317,-4.3972 11.01317,-9.31883 0,-4.76027 -4.27618,-8.63303 -9.52054,-8.63303 -2.86423,0 -6.01085,1.89604 -6.01085,5.24436 0,2.29946 1.73468,4.23584 4.19549,4.23584 v -0.40342 c -2.21877,0 -3.79208,-1.73467 -3.79208,-3.83242 0,-3.06593 2.86423,-4.84095 5.60744,-4.84095 5.00231,0 9.11712,3.7114 9.11712,8.22962 0,4.5989 -4.76027,8.75405 -10.60975,8.75405 h -3.9131 l -5.56709,-17.22571 c -0.20171,-0.60512 -0.40342,-1.77502 -0.40342,-2.58184 0,-0.16137 0.0403,-0.28239 0.0403,-0.40342 v -0.2017 z m 5.52676,20.41267 H 179.8937 l 5.12334,-15.61206 c 0.24205,-0.84717 0.40341,-1.37161 0.40341,-1.61365 h 0.28239 c 0,0.44375 0.0403,1.00853 0.28239,1.61365 z" />
  </g>
</svg>
