<svg xmlns="http://www.w3.org/2000/svg" width="98.37" height="98.37">
  <path d="M49.19 0a49.18 49.18 0 1 0 0 98.37 49.18 49.18 0 0 0 0-98.37zm18.93 72.55c-.8 0-1.34-.28-2.09-.73-7.12-4.31-16.01-6.58-25.44-6.58-5.27 0-10.57.68-15.52 1.7-.8.18-1.82.49-2.42.49a3.07 3.07 0 0 1-3.12-3.1c0-2.06 1.2-3.09 2.68-3.37a82.08 82.08 0 0 1 18.4-2.18c10.77 0 20.36 2.47 28.62 7.42 1.22.72 1.94 1.45 1.94 3.27a3.06 3.06 0 0 1-3.05 3.08zm5.35-13.02c-1.06 0-1.73-.43-2.46-.85-8-4.75-19.09-7.9-31.23-7.9-6.23 0-11.6.87-16.06 2.05-.95.27-1.5.55-2.39.55a3.85 3.85 0 0 1-3.84-3.86c0-2.09 1.01-3.53 3.06-4.1a67.92 67.92 0 0 1 19.4-2.69c12.87 0 25.32 3.2 35.11 9.07a4.02 4.02 0 0 1 2.25 3.88c0 2.13-1.7 3.85-3.84 3.85zm6.1-15.14c-1 0-1.59-.24-2.53-.76-8.9-5.34-22.72-8.28-36.08-8.28-6.67 0-13.44.68-19.64 2.37-.72.18-1.62.53-2.52.53a4.61 4.61 0 0 1-4.64-4.7 4.66 4.66 0 0 1 3.44-4.7c7.01-2.06 14.84-3.02 23.35-3.02 14.44 0 29.63 2.97 40.73 9.48a4.67 4.67 0 0 1 2.54 4.47c0 2.68-2.16 4.6-4.64 4.6z"/>
</svg>
